<svg width="35" height="36" viewBox="0 0 35 36" fill="none" xmlns="http://www.w3.org/2000/svg">
<g clip-path="url(#clip0_7_670)">
<path d="M22.3276 33.8546H5.43107L3.0173 15.1478H24.7414L22.3276 33.8546Z" fill="#00A66A"/>
<path d="M26.5518 12.734H1.20695V15.1478H26.5518V12.734Z" fill="#00A66A"/>
<path d="M3.01731 15.1478L3.32869 17.5615H24.43L24.7414 15.1478H3.01731Z" fill="#9AD143"/>
<path d="M12.6724 12.7339H4.22419V7.30293L6.63795 4.28569H10.2587L12.6724 7.30293V12.7339Z" fill="#9AD143"/>
<path d="M10.2585 0.0615654H6.63775V4.28569H10.2585V0.0615654Z" fill="#00A66A"/>
<path d="M12.6727 7.30286H4.22419V12.734H12.6727V7.30286Z" fill="#9AD143"/>
<path d="M22.214 2.09917L21.1342 2.63814L23.5973 7.57249L24.677 7.03352L22.214 2.09917Z" fill="#E66712"/>
<path d="M25.9486 0.0615654H23.5348V2.47533H25.9486V0.0615654Z" fill="#9AD143"/>
<path d="M20.5173 4.88916H15.0863C15.0863 2.22308 17.2478 0.0615654 19.9138 0.0615654H23.5345V2.47533L20.5173 4.88916Z" fill="#9AD143"/>
<path d="M20.5171 4.8891H16.8964V7.30286H20.5171V4.8891Z" fill="#D4D4D4"/>
<path d="M16.8966 7.30293H20.5173L23.5345 10.3202V12.7339H15.0863V9.11329L16.8966 7.30293Z" fill="#9AD143"/>
<path d="M30.7759 25.4064H29.8309C29.2619 25.4064 28.7006 25.5391 28.1913 25.7931C27.1594 26.3097 25.944 26.3097 24.9122 25.7931C24.4029 25.5391 23.8417 25.4064 23.2726 25.4064H22.3276C20.6614 25.4064 19.3103 26.7575 19.3103 28.4236V32.0443C19.3103 33.7104 20.6614 35.0616 22.3276 35.0616H23.2726C23.8416 35.0616 24.4028 34.9288 24.9122 34.6748C25.944 34.1583 27.1594 34.1583 28.1913 34.6748C28.7006 34.9288 29.2618 35.0616 29.8308 35.0616H30.7758C32.4419 35.0616 33.7931 33.7104 33.7931 32.0443V28.4236C33.7931 26.7575 32.442 25.4064 30.7759 25.4064Z" fill="#F5A338"/>
<path d="M30.7759 31.4408H29.8309C29.2619 31.4408 28.7006 31.308 28.1913 31.054C27.1594 30.5375 25.944 30.5375 24.9122 31.054C24.4029 31.308 23.8417 31.4408 23.2726 31.4408H22.3276C20.6614 31.4408 19.3103 30.0897 19.3103 28.4235C19.3103 26.7574 20.6614 25.4063 22.3276 25.4063H23.2726C23.8416 25.4063 24.4028 25.5391 24.9122 25.7931C25.944 26.3096 27.1594 26.3096 28.1913 25.7931C28.7006 25.5391 29.2618 25.4063 29.8308 25.4063H30.7758C32.4419 25.4063 33.7931 26.7574 33.7931 28.4235C33.7931 30.0897 32.442 31.4408 30.7759 31.4408Z" fill="#F9B44D"/>
<path d="M31.3794 27.2166H30.1725V28.4235H31.3794V27.2166Z" fill="#F5A338"/>
<path d="M25.3446 27.2166H24.1377V28.4235H25.3446V27.2166Z" fill="#F5A338"/>
<path d="M22.9308 27.8202H21.724V29.0271H22.9308V27.8202Z" fill="#F5A338"/>
<path d="M28.9656 27.8202H27.7587V29.0271H28.9656V27.8202Z" fill="#F5A338"/>
<path d="M16.8966 17.5615V12.7339H7.24143V26.6132C7.24143 27.6131 8.05183 28.4235 9.05179 28.4235H15.0863C16.0862 28.4235 16.8966 27.6131 16.8966 26.6132V20.5787L19.3466 21.8037C19.9929 22.1272 20.7786 21.8652 21.102 21.2196C21.102 21.219 21.1026 21.219 21.1026 21.2183L21.1177 21.1882C21.4556 20.525 21.1914 19.7133 20.5288 19.3761C20.5264 19.3748 20.5234 19.3731 20.5203 19.3718L16.8966 17.5615Z" fill="#97D3E6"/>
<path d="M20.5203 19.3719L16.8966 17.5615V12.7339H16.4392C14.2487 19.9361 10.4047 24.3376 7.26679 26.8793C7.39654 27.7658 8.15628 28.4229 9.05179 28.4235H15.0863C16.0862 28.4235 16.8966 27.6131 16.8966 26.6132V20.5787L19.3466 21.8037C19.9929 22.1272 20.7786 21.8652 21.102 21.2196C21.102 21.219 21.1026 21.219 21.1026 21.2183L21.1177 21.1882C21.4556 20.525 21.1914 19.7133 20.5288 19.3761C20.5258 19.3749 20.5233 19.3731 20.5203 19.3719Z" fill="#8CC6D9"/>
<path d="M10.2584 22.3891H9.05151V28.4238H10.2584V22.3891Z" fill="#7DBDD1"/>
<path d="M12.6722 22.3891H11.4653V28.4238H12.6722V22.3891Z" fill="#7DBDD1"/>
<path d="M15.0859 22.3891H13.879V28.4238H15.0859V22.3891Z" fill="#7DBDD1"/>
</g>
<defs>
<clipPath id="clip0_7_670">
<rect width="35" height="35" fill="white" transform="translate(0 0.0615654)"/>
</clipPath>
</defs>
</svg>
