<svg width="31" height="31" viewBox="0 0 31 31" fill="none" xmlns="http://www.w3.org/2000/svg">
<g clip-path="url(#clip0_7_739)">
<path d="M18.2951 8.54408H12.959C12.6958 8.54408 12.4826 8.75738 12.4826 9.02052C12.4826 9.28365 12.6958 9.49696 12.959 9.49696H15.0236V13.3402C15.0236 13.6033 15.2368 13.8166 15.5 13.8166C15.7632 13.8166 15.9764 13.6033 15.9764 13.3402V9.49696H18.2951C18.5583 9.49696 18.7715 9.28365 18.7715 9.02052C18.7715 8.75738 18.5583 8.54408 18.2951 8.54408Z" fill="#666666"/>
<path d="M18.1681 7.27356C17.2048 7.27356 16.4212 8.05721 16.4212 9.02045C16.4212 9.98369 17.2049 10.7674 18.1681 10.7674C19.1312 10.7674 19.915 9.98369 19.915 9.02045C19.915 8.05721 19.1312 7.27356 18.1681 7.27356Z" fill="#00A66A"/>
<path d="M12.8319 7.27356C11.8687 7.27356 11.085 8.05721 11.085 9.02045C11.085 9.98369 11.8688 10.7674 12.8319 10.7674C13.7951 10.7674 14.5788 9.98369 14.5788 9.02045C14.5788 8.05721 13.7952 7.27356 12.8319 7.27356Z" fill="#00A66A"/>
<path d="M29.3801 0.158815H25.5368C25.2737 0.158815 25.0604 0.372122 25.0604 0.635259V11.4345C25.0604 12.2226 24.4192 12.8638 23.6311 12.8638H7.33707C3.92186 12.8638 1.14342 15.6422 1.14342 19.0574V30.2377C1.14342 30.5009 1.35667 30.7142 1.61987 30.7142H5.46308C5.72628 30.7142 5.93952 30.5009 5.93952 30.2377V19.0574C5.93952 18.2692 6.58072 17.628 7.36885 17.628H23.6629C27.0781 17.628 29.8566 14.8496 29.8566 11.4344V0.635259C29.8566 0.372122 29.6433 0.158815 29.3801 0.158815Z" fill="#9AD143"/>
<path d="M29.3801 0.158815H25.5368C25.2737 0.158815 25.0604 0.372122 25.0604 0.635259V11.4345C25.0604 12.2226 24.4192 12.8638 23.6311 12.8638H7.33707C3.92186 12.8638 1.14342 15.6422 1.14342 19.0574V30.2377C1.14342 30.5009 1.35667 30.7142 1.61987 30.7142H5.46308C5.72628 30.7142 5.93952 30.5009 5.93952 30.2377V19.0574C5.93952 18.2692 6.58072 17.628 7.36885 17.628H23.6629C27.0781 17.628 29.8566 14.8496 29.8566 11.4344V0.635259C29.8566 0.372122 29.6433 0.158815 29.3801 0.158815Z" fill="#9AD143"/>
<path d="M13.4672 11.6885H11.9426C11.6794 11.6885 11.4662 11.9018 11.4662 12.165V18.2633C11.4662 18.5264 11.6794 18.7397 11.9426 18.7397H13.4672C13.7304 18.7397 13.9436 18.5264 13.9436 18.2633V12.165C13.9436 11.9018 13.7304 11.6885 13.4672 11.6885Z" fill="#00A66A"/>
<path d="M19.0574 11.6885H17.5328C17.2696 11.6885 17.0564 11.9018 17.0564 12.165V18.2633C17.0564 18.5264 17.2696 18.7397 17.5328 18.7397H19.0574C19.3206 18.7397 19.5338 18.5264 19.5338 18.2633V12.165C19.5338 11.9018 19.3206 11.6885 19.0574 11.6885Z" fill="#00A66A"/>
<path d="M30.5236 2.06453H24.4252C24.162 2.06453 23.9488 2.27783 23.9488 2.54097V4.06554C23.9488 4.32868 24.162 4.54198 24.4252 4.54198H30.5236C30.7868 4.54198 31 4.32868 31 4.06554V2.54097C31 2.27789 30.7868 2.06453 30.5236 2.06453Z" fill="#00A66A"/>
<path d="M6.57479 26.3309H0.476443C0.213246 26.3309 0 26.5442 0 26.8074V28.3319C0 28.5951 0.213246 28.8084 0.476443 28.8084H6.57479C6.83798 28.8084 7.05123 28.5951 7.05123 28.3319V26.8074C7.05123 26.5442 6.83798 26.3309 6.57479 26.3309Z" fill="#00A66A"/>
<path d="M13.9436 12.165C13.9436 11.9018 13.7304 11.6885 13.4672 11.6885H11.9426C11.6794 11.6885 11.4662 11.9018 11.4662 12.165V12.8637H13.9436V12.165Z" fill="#9AD143"/>
<path d="M11.4662 18.2633C11.4662 18.5264 11.6794 18.7397 11.9426 18.7397H13.4672C13.7304 18.7397 13.9436 18.5264 13.9436 18.2633V17.628H11.4662V18.2633Z" fill="#9AD143"/>
<path d="M17.0564 18.2633C17.0564 18.5264 17.2696 18.7397 17.5328 18.7397H19.0574C19.3206 18.7397 19.5338 18.5264 19.5338 18.2633V17.628H17.0564V18.2633Z" fill="#9AD143"/>
<path d="M19.5338 12.165C19.5338 11.9018 19.3206 11.6885 19.0574 11.6885H17.5328C17.2696 11.6885 17.0564 11.9018 17.0564 12.165V12.8637H19.5338V12.165Z" fill="#9AD143"/>
<path d="M24.4252 2.06453C24.162 2.06453 23.9488 2.27783 23.9488 2.54097V4.06554C23.9488 4.32868 24.162 4.54198 24.4252 4.54198H25.0605V2.06453H24.4252Z" fill="#9AD143"/>
<path d="M30.5236 2.06453H29.8566V4.54198H30.5236C30.7868 4.54198 31 4.32868 31 4.06554V2.54097C31 2.27789 30.7868 2.06453 30.5236 2.06453Z" fill="#9AD143"/>
<path d="M0.476443 26.3309C0.213246 26.3309 0 26.5442 0 26.8074V28.3319C0 28.5951 0.213246 28.8084 0.476443 28.8084H1.14343V26.3309H0.476443Z" fill="#9AD143"/>
<path d="M6.57479 28.8084C6.83798 28.8084 7.05123 28.5951 7.05123 28.3319V26.8074C7.05123 26.5442 6.83798 26.3309 6.57479 26.3309H5.93953V28.8084H6.57479Z" fill="#9AD143"/>
<path d="M15.8857 19.2859C15.6986 19.0279 15.3015 19.0279 15.1143 19.2859C14.728 19.8186 11.3392 24.5523 11.3392 26.6803C11.3392 28.9746 13.2057 30.8412 15.5 30.8412C17.7943 30.8412 19.6608 28.9746 19.6608 26.6803C19.6608 24.5523 16.2721 19.8186 15.8857 19.2859Z" fill="#6CD1F1"/>
<path d="M16.8658 29.7295C14.5715 29.7295 12.7049 27.8629 12.7049 25.5686C12.7049 23.9479 14.6703 20.8163 15.7782 19.1797C15.5678 19.0281 15.2665 19.076 15.1143 19.2859C14.7279 19.8186 11.3391 24.5523 11.3391 26.6803C11.3391 28.9747 13.2056 30.8412 15.4999 30.8412C16.812 30.8412 17.9835 30.2301 18.7466 29.2783C18.1813 29.5661 17.5424 29.7295 16.8658 29.7295Z" fill="#5FB0D3"/>
<path d="M16.0082 29.2213C16.6397 29.2213 17.1516 28.7094 17.1516 28.0779C17.1516 27.4464 16.6397 26.9345 16.0082 26.9345C15.3767 26.9345 14.8647 27.4464 14.8647 28.0779C14.8647 28.7094 15.3767 29.2213 16.0082 29.2213Z" fill="#D4F2E8"/>
<path d="M17.0246 26.2991C17.4456 26.2991 17.7869 25.9579 17.7869 25.5369C17.7869 25.1159 17.4456 24.7746 17.0246 24.7746C16.6036 24.7746 16.2623 25.1159 16.2623 25.5369C16.2623 25.9579 16.6036 26.2991 17.0246 26.2991Z" fill="#D4F2E8"/>
</g>
<defs>
<clipPath id="clip0_7_739">
<rect width="31" height="31" fill="white"/>
</clipPath>
</defs>
</svg>
