<svg width="22" height="29" viewBox="0 0 22 29" fill="none" xmlns="http://www.w3.org/2000/svg">
<path d="M18.9858 8.7798C18.8937 8.77167 18.8008 8.78177 18.7126 8.80953C18.6243 8.83728 18.5424 8.88216 18.4715 8.94158C18.4006 9.001 18.3421 9.07381 18.2994 9.15584C18.2566 9.23787 18.2304 9.32753 18.2223 9.41968L18.2169 9.48144H3.78301L3.77757 9.41968C3.76119 9.23358 3.67155 9.06161 3.52838 8.94161C3.38521 8.8216 3.20022 8.76339 3.01413 8.77977C2.82803 8.79615 2.65606 8.88579 2.53606 9.02896C2.41605 9.17214 2.35784 9.35712 2.37422 9.54322L4.02885 28.3402C4.04431 28.5156 4.12493 28.6789 4.25481 28.7979C4.38469 28.9168 4.55441 28.9828 4.73053 28.9828H17.2694C17.4455 28.9828 17.6152 28.9168 17.7451 28.7979C17.875 28.6789 17.9556 28.5156 17.9711 28.3402L19.6257 9.54322C19.6421 9.35713 19.5838 9.17216 19.4638 9.02899C19.3438 8.88583 19.1719 8.79619 18.9858 8.7798Z" fill="#9AD143"/>
<path d="M20.8801 5.12005H19.383L18.1063 2.79039C17.7541 2.0013 17.1809 1.33111 16.4559 0.86083C15.731 0.390546 14.8854 0.140299 14.0213 0.140337H7.97871C7.11458 0.140294 6.26895 0.390538 5.544 0.860823C4.81906 1.33111 4.24586 2.0013 3.89366 2.79039L2.61694 5.12005H1.11989C0.914399 5.12005 0.717326 5.20168 0.572024 5.34698C0.426721 5.49228 0.345091 5.68935 0.345091 5.89484V9.48145C0.345091 9.68694 0.426721 9.88401 0.572024 10.0293C0.717326 10.1746 0.914399 10.2562 1.11989 10.2562H20.8801C21.0856 10.2562 21.2827 10.1746 21.428 10.0293C21.5733 9.88401 21.6549 9.68694 21.6549 9.48145V5.89484C21.6549 5.79309 21.6349 5.69234 21.5959 5.59833C21.557 5.50433 21.4999 5.41891 21.428 5.34697C21.356 5.27502 21.2706 5.21795 21.1766 5.17901C21.0826 5.14008 20.9818 5.12004 20.8801 5.12005Z" fill="#00A66A"/>
<path d="M12.7141 20.6939C12.3434 21.0138 11.9008 21.2393 11.4241 21.3511C10.9474 21.463 10.4507 21.4579 9.97634 21.3363L10.0381 21.3077C10.2076 21.2292 10.339 21.0866 10.4034 20.9112C10.4678 20.7359 10.4598 20.5421 10.3814 20.3726C10.3029 20.2031 10.1603 20.0717 9.98491 20.0073C9.80954 19.9429 9.61579 19.9508 9.44627 20.0293L7.78435 20.7987C7.69833 20.8385 7.62124 20.8953 7.55769 20.9656C7.49414 21.0359 7.44543 21.1183 7.41449 21.2079C7.38354 21.2975 7.371 21.3924 7.37761 21.4869C7.38421 21.5815 7.40983 21.6737 7.45294 21.7581L8.28558 23.3893C8.32711 23.4726 8.38472 23.5468 8.4551 23.6077C8.52548 23.6686 8.60722 23.7149 8.69561 23.744C8.784 23.7731 8.87728 23.7844 8.97007 23.7773C9.06285 23.7701 9.1533 23.7446 9.23618 23.7023C9.31907 23.66 9.39274 23.6017 9.45296 23.5308C9.51318 23.4598 9.55874 23.3776 9.58701 23.289C9.61528 23.2003 9.6257 23.1069 9.61767 23.0142C9.60964 22.9215 9.58332 22.8313 9.54023 22.7488L9.49808 22.6662C10.2089 22.8715 10.9597 22.8961 11.6824 22.7376C12.4051 22.5791 13.0768 22.2426 13.6364 21.7587C13.7063 21.6982 13.7636 21.6244 13.8051 21.5417C13.8465 21.459 13.8712 21.369 13.8778 21.2767C13.8845 21.1844 13.8728 21.0918 13.8436 21.004C13.8145 20.9162 13.7683 20.8351 13.7077 20.7652C13.6471 20.6952 13.5734 20.6379 13.4907 20.5965C13.408 20.5551 13.3179 20.5304 13.2257 20.5237C13.1334 20.5171 13.0408 20.5287 12.953 20.5579C12.8652 20.5871 12.784 20.6333 12.7141 20.6939Z" fill="#084444"/>
<path d="M7.81536 19.1622C7.68986 18.6889 7.6807 18.1923 7.78865 17.7147C7.8966 17.2371 8.11847 16.7927 8.43533 16.4194L8.43402 16.4872C8.43223 16.5797 8.44869 16.6716 8.48243 16.7578C8.51618 16.8439 8.56655 16.9225 8.63069 16.9892C8.69482 17.0558 8.77146 17.1092 8.85622 17.1462C8.94098 17.1833 9.03221 17.2033 9.12469 17.205C9.1293 17.2051 9.13391 17.2052 9.13852 17.2052C9.32293 17.2051 9.49995 17.1327 9.63157 17.0036C9.76319 16.8744 9.83891 16.6988 9.84247 16.5144L9.87775 14.6833C9.8796 14.5886 9.86229 14.4944 9.82686 14.4065C9.79144 14.3186 9.73863 14.2387 9.6716 14.1717C9.6049 14.1043 9.5251 14.0512 9.43711 14.0157C9.34913 13.9803 9.25481 13.9632 9.15998 13.9655L7.32892 14.0007C7.23616 14.0021 7.1446 14.0218 7.05947 14.0586C6.97434 14.0955 6.89733 14.1488 6.83286 14.2155C6.7684 14.2822 6.71774 14.361 6.6838 14.4473C6.64986 14.5336 6.6333 14.6258 6.63509 14.7186C6.63687 14.8113 6.65696 14.9028 6.69419 14.9878C6.73143 15.0727 6.78508 15.1495 6.85207 15.2137C6.91905 15.2778 6.99806 15.3281 7.08454 15.3617C7.17102 15.3952 7.26328 15.4114 7.35601 15.4092L7.44862 15.4074C6.95359 15.9571 6.60344 16.6215 6.42984 17.3406C6.25624 18.0597 6.26467 18.8107 6.45437 19.5256C6.47758 19.6157 6.51839 19.7003 6.57446 19.7745C6.63053 19.8488 6.70075 19.9112 6.78107 19.9581C6.86138 20.005 6.95019 20.0356 7.04238 20.048C7.13457 20.0604 7.22831 20.0545 7.31818 20.0305C7.40806 20.0065 7.49229 19.9649 7.56601 19.9082C7.63974 19.8515 7.70149 19.7807 7.74772 19.7C7.79395 19.6193 7.82372 19.5302 7.83533 19.4379C7.84694 19.3456 7.84015 19.2519 7.81536 19.1622Z" fill="#084444"/>
<path d="M16.0887 17.129C15.9336 17.0248 15.7435 16.9865 15.5602 17.0225C15.3769 17.0585 15.2154 17.1659 15.1112 17.3209L15.0595 17.3979C14.8931 16.6772 14.5496 16.0092 14.06 15.4547C13.5705 14.9001 12.9504 14.4763 12.2558 14.2217C12.1689 14.1897 12.0764 14.1752 11.9839 14.179C11.8913 14.1827 11.8004 14.2048 11.7163 14.2437C11.6322 14.2827 11.5567 14.3379 11.494 14.4062C11.4313 14.4744 11.3827 14.5543 11.3509 14.6414C11.3192 14.7284 11.3049 14.8209 11.309 14.9134C11.313 15.006 11.3353 15.0969 11.3745 15.1808C11.4137 15.2648 11.4691 15.3402 11.5375 15.4027C11.6059 15.4652 11.686 15.5136 11.7731 15.5451C12.2328 15.7137 12.645 15.991 12.9743 16.3533C13.3037 16.7156 13.5406 17.1523 13.6647 17.6259L13.6098 17.5859C13.4587 17.4775 13.271 17.4332 13.0874 17.4627C12.9039 17.4922 12.7394 17.593 12.6299 17.7432C12.5204 17.8935 12.4747 18.0809 12.5028 18.2646C12.5309 18.4484 12.6306 18.6136 12.78 18.7242L14.2598 19.8031C14.3364 19.8589 14.4235 19.8987 14.5158 19.9201C14.6081 19.9415 14.7038 19.944 14.7972 19.9276C14.8905 19.9111 14.9795 19.8759 15.059 19.8242C15.1384 19.7725 15.2066 19.7053 15.2594 19.6267L16.2806 18.1064C16.3848 17.9513 16.423 17.7612 16.3871 17.5779C16.3511 17.3946 16.2437 17.2331 16.0887 17.129Z" fill="#084444"/>
</svg>
